<svg xmlns="http://www.w3.org/2000/svg" viewBox="0 0 99.81 99.81">
  <defs>
    <style>
      .cls-1,
      .cls-2,
      .cls-3,
      .cls-4 {
        fill: none;
        stroke: #fff;
        stroke-linecap: round;
        stroke-miterlimit: 10;
        stroke-width: 2px;
      }
      .cls-1 {
        stroke-dasharray: 7.03 10.04;
      }
      .cls-3 {
        stroke-dasharray: 7 10;
      }
      .cls-4 {
        stroke-dasharray: 4.94 9.88;
      }
      .cls-5 {
        font-size: 14.58px;
      }
      .cls-5,
      .cls-6 {
        fill: #fff;
        font-family: Arial-BoldMT, Arial;
        font-weight: 700;
      }
      .cls-6 {
        font-size: 28px;
      }
    </style>
  </defs>
  <title>cogPr</title>
  <g id="cog">

    <animateTransform attributeName="transform" attributeType="XML" type="rotate" from="0 50 50" to="360 50 50" dur="7s" repeatCount="indefinite"/>

    <circle class="cls-1" cx="50" cy="50" r="48.9" transform="translate(-19.51 36.44) rotate(-34.02)"/><circle class="cls-2" cx="49.91" cy="49.91" r="36.28"/><line class="cls-3" x1="46.4" y1="1.16" x2="44.97" y2="7.73"/><line class="cls-3" x1="53.45" y1="1.17" x2="54.82" y2="7.73"/><line class="cls-3" x1="29.94" y1="5.3" x2="30.85" y2="11.96"/><line class="cls-3" x1="36.57" y1="2.9" x2="40.1" y2="8.6"/><line class="cls-3" x1="15.89" y1="14.82" x2="19.02" y2="20.77"/><line class="cls-3" x1="21.29" y1="10.3" x2="26.56" y2="14.44"/><line class="cls-3" x1="5.94" y1="28.57" x2="10.91" y2="33.09"/><line class="cls-3" x1="9.47" y1="22.47" x2="15.84" y2="24.57"/><line class="cls-3" x1="1.29" y1="44.9" x2="7.51" y2="47.44"/><line class="cls-3" x1="2.53" y1="37.96" x2="9.23" y2="37.75"/><line class="cls-3" x1="2.51" y1="61.82" x2="9.23" y2="62.09"/><line class="cls-3" x1="1.3" y1="54.88" x2="7.52" y2="52.39"/><line class="cls-3" x1="9.44" y1="77.32" x2="15.85" y2="75.27"/><line class="cls-3" x1="5.93" y1="71.21" x2="10.93" y2="66.74"/><line class="cls-3" x1="21.26" y1="89.5" x2="26.58" y2="85.39"/><line class="cls-3" x1="15.87" y1="84.96" x2="19.03" y2="79.06"/><line class="cls-3" x1="36.53" y1="96.91" x2="40.12" y2="91.23"/><line class="cls-3" x1="29.91" y1="94.49" x2="30.87" y2="87.86"/><line class="cls-3" x1="53.41" y1="98.65" x2="54.84" y2="92.08"/><line class="cls-3" x1="46.36" y1="98.64" x2="44.99" y2="92.08"/><line class="cls-3" x1="69.87" y1="94.51" x2="68.97" y2="87.85"/><line class="cls-3" x1="63.25" y1="96.91" x2="59.72" y2="91.22"/><line class="cls-3" x1="83.93" y1="84.99" x2="80.8" y2="79.04"/><line class="cls-3" x1="78.52" y1="89.52" x2="73.25" y2="85.37"/><line class="cls-3" x1="93.88" y1="71.24" x2="88.9" y2="66.72"/><line class="cls-3" x1="90.34" y1="77.34" x2="83.97" y2="75.25"/><line class="cls-3" x1="98.52" y1="54.92" x2="92.3" y2="52.37"/><line class="cls-3" x1="97.29" y1="61.86" x2="90.59" y2="62.07"/><line class="cls-3" x1="97.3" y1="37.99" x2="90.58" y2="37.72"/><line class="cls-3" x1="98.52" y1="44.93" x2="92.29" y2="47.42"/><line class="cls-3" x1="90.37" y1="22.5" x2="83.96" y2="24.55"/><line class="cls-3" x1="93.88" y1="28.61" x2="88.89" y2="33.07"/><line class="cls-3" x1="78.55" y1="10.31" x2="73.24" y2="14.43"/><line class="cls-3" x1="83.95" y1="14.85" x2="80.78" y2="20.76"/><line class="cls-3" x1="63.28" y1="2.9" x2="59.69" y2="8.59"/><line class="cls-3" x1="69.9" y1="5.32" x2="68.95" y2="11.96"/><circle class="cls-4" cx="50" cy="50" r="42.45" transform="translate(-15.79 23.75) rotate(-23.29)"/></g>
  <g id="title">

    <animateTransform attributeName="transform" attributeType="XML" type="rotate" from="360 50 50" to="0 50 50" dur="10s" repeatCount="indefinite"/>

    <text class="cls-5" transform="translate(26.15 47.87) rotate(-73.52)">P</text>
    <text class="cls-5" transform="matrix(0.63, -0.78, 0.78, 0.63, 28.43, 39.28)">R</text>
    <text class="cls-5" transform="matrix(0.89, -0.45, 0.45, 0.89, 34.28, 31.61)">O</text>
    <text class="cls-5" transform="matrix(1, -0.09, 0.09, 1, 43.65, 27)">J</text>
    <text class="cls-5" transform="translate(50.93 26.05) rotate(14.23)">E</text>
    <text class="cls-5" transform="matrix(0.8, 0.6, -0.6, 0.8, 59.6, 27.99)">C</text>
    <text class="cls-5" transform="translate(67.33 33.74) rotate(58.07)">T</text>
    <text class="cls-5" transform="matrix(0.2, 0.98, -0.98, 0.2, 71.81, 40.52)">S</text>
  </g>
  <g id="logo">
    <text class="cls-6" transform="translate(34.94 59.65)">Pr</text>
  </g>
</svg>
