<svg xmlns="http://www.w3.org/2000/svg" viewBox="0 0 99.81 99.81">
  <defs>
    <style>
      .cls-1,
      .cls-2,
      .cls-3,
      .cls-4 {
        fill: none;
        stroke: #fff;
        stroke-linecap: round;
        stroke-miterlimit: 10;
        stroke-width: 2px;
      }
      .cls-1 {
        stroke-dasharray: 7.03 10.04;
      }
      .cls-3 {
        stroke-dasharray: 7 10;
      }
      .cls-4 {
        stroke-dasharray: 4.94 9.88;
      }
      .cls-5 {
        font-size: 11.24px;
      }
      .cls-5,
      .cls-6 {
        fill: #fff;
        font-family: Arial-BoldMT, Arial;
        font-weight: 700;
      }
      .cls-6 {
        font-size: 32px;
      }

    </style>
  </defs>
  <title>cogRc</title>
  <g id="cog">

    <animateTransform attributeName="transform" attributeType="XML" type="rotate" from="0 50 50" to="360 50 50" dur="7s" repeatCount="indefinite"/>

    <circle class="cls-1" cx="50" cy="50" r="48.9" transform="translate(-19.51 36.44) rotate(-34.02)"/><circle class="cls-2" cx="49.91" cy="49.91" r="36.28"/><line class="cls-3" x1="46.4" y1="1.16" x2="44.97" y2="7.73"/><line class="cls-3" x1="53.45" y1="1.17" x2="54.82" y2="7.73"/><line class="cls-3" x1="29.94" y1="5.3" x2="30.85" y2="11.96"/><line class="cls-3" x1="36.57" y1="2.9" x2="40.1" y2="8.6"/><line class="cls-3" x1="15.89" y1="14.82" x2="19.02" y2="20.77"/><line class="cls-3" x1="21.29" y1="10.3" x2="26.56" y2="14.44"/><line class="cls-3" x1="5.94" y1="28.57" x2="10.91" y2="33.09"/><line class="cls-3" x1="9.47" y1="22.47" x2="15.84" y2="24.57"/><line class="cls-3" x1="1.29" y1="44.9" x2="7.51" y2="47.44"/><line class="cls-3" x1="2.53" y1="37.96" x2="9.23" y2="37.75"/><line class="cls-3" x1="2.51" y1="61.82" x2="9.23" y2="62.09"/><line class="cls-3" x1="1.3" y1="54.88" x2="7.52" y2="52.39"/><line class="cls-3" x1="9.44" y1="77.32" x2="15.85" y2="75.27"/><line class="cls-3" x1="5.93" y1="71.21" x2="10.93" y2="66.74"/><line class="cls-3" x1="21.26" y1="89.5" x2="26.58" y2="85.39"/><line class="cls-3" x1="15.87" y1="84.96" x2="19.03" y2="79.06"/><line class="cls-3" x1="36.53" y1="96.91" x2="40.12" y2="91.23"/><line class="cls-3" x1="29.91" y1="94.49" x2="30.87" y2="87.86"/><line class="cls-3" x1="53.41" y1="98.65" x2="54.84" y2="92.08"/><line class="cls-3" x1="46.36" y1="98.64" x2="44.99" y2="92.08"/><line class="cls-3" x1="69.87" y1="94.51" x2="68.97" y2="87.85"/><line class="cls-3" x1="63.25" y1="96.91" x2="59.72" y2="91.22"/><line class="cls-3" x1="83.93" y1="84.99" x2="80.8" y2="79.04"/><line class="cls-3" x1="78.52" y1="89.52" x2="73.25" y2="85.37"/><line class="cls-3" x1="93.88" y1="71.24" x2="88.9" y2="66.72"/><line class="cls-3" x1="90.34" y1="77.34" x2="83.97" y2="75.25"/><line class="cls-3" x1="98.52" y1="54.92" x2="92.3" y2="52.37"/><line class="cls-3" x1="97.29" y1="61.86" x2="90.59" y2="62.07"/><line class="cls-3" x1="97.3" y1="37.99" x2="90.58" y2="37.72"/><line class="cls-3" x1="98.52" y1="44.93" x2="92.29" y2="47.42"/><line class="cls-3" x1="90.37" y1="22.5" x2="83.96" y2="24.55"/><line class="cls-3" x1="93.88" y1="28.61" x2="88.89" y2="33.07"/><line class="cls-3" x1="78.55" y1="10.31" x2="73.24" y2="14.43"/><line class="cls-3" x1="83.95" y1="14.85" x2="80.78" y2="20.76"/><line class="cls-3" x1="63.28" y1="2.9" x2="59.69" y2="8.59"/><line class="cls-3" x1="69.9" y1="5.32" x2="68.95" y2="11.96"/><circle class="cls-4" cx="50" cy="50" r="42.45" transform="translate(-15.79 23.75) rotate(-23.29)"/></g>
  <g id="title">

    <animateTransform attributeName="transform" attributeType="XML" type="rotate" from="360 50 50" to="0 50 50" dur="10s" repeatCount="indefinite"/>

    <text class="cls-5" transform="translate(45.76 75.48) rotate(-163.91)">J</text>
    <text class="cls-5" transform="translate(40.15 74.05) rotate(-148.99)">C</text>
    <text class="cls-5" transform="translate(33.59 70.19) rotate(-132.17)">U</text>
    <text class="cls-5" transform="translate(28.58 64.34) rotate(-120.64)"></text>
    <text class="cls-5" transform="matrix(-0.33, -0.95, 0.95, -0.33, 26.91, 62.1)">C</text>
    <text class="cls-5" transform="translate(24.37 54.96) rotate(-92.17)">A</text>
    <text class="cls-5" transform="translate(24.3 47.25) rotate(-81.18)">I</text>
    <text class="cls-5" transform="matrix(0.36, -0.93, 0.93, 0.36, 24.46, 44.46)">R</text>
    <text class="cls-5" transform="matrix(0.61, -0.79, 0.79, 0.61, 27.1, 37.34)">N</text>
    <text class="cls-5" transform="translate(31.74 31.33) rotate(-36.1)">S</text>
    <text class="cls-5" transform="translate(37.6 27.27) rotate(-25.15)"></text>
    <text class="cls-5" transform="matrix(0.97, -0.23, 0.23, 0.97, 39.97, 25.83)">R</text>
    <text class="cls-5" transform="matrix(1, 0.07, -0.07, 1, 47.31, 23.93)">O</text>
    <text class="cls-5" transform="matrix(0.93, 0.36, -0.36, 0.93, 55.52, 24.47)">B</text>
    <text class="cls-5" transform="translate(62.61 27.09) rotate(38.78)">O</text>
    <text class="cls-5" transform="translate(68.99 32.3) rotate(54.88)">T</text>
    <text class="cls-5" transform="matrix(0.42, 0.91, -0.91, 0.42, 72.63, 37.71)">I</text>
    <text class="cls-5" transform="translate(74.05 40.1) rotate(76.83)">C</text>
    <text class="cls-5" transform="translate(75.81 47.47) rotate(93.01)">S</text>
    <text class="cls-5" transform="translate(75.27 54.56) rotate(103.83)"></text>
    <text class="cls-5" transform="translate(74.89 57.33) rotate(115.52)">C</text>
    <text class="cls-5" transform="translate(71.6 64.18) rotate(131.03)">L</text>
    <text class="cls-5" transform="translate(67.51 69.1) rotate(146.46)">U</text>
    <text class="cls-5" transform="translate(61.21 73.37) rotate(163.24)">B</text>
  </g>
  <g id="logo">
    <text class="cls-6" transform="translate(29.91 59.65)">Rc</text>
  </g>
</svg>
